<?xml version="1.0" standalone="no"?><!-- Generator: Gravit.io --><svg xmlns="http://www.w3.org/2000/svg" xmlns:xlink="http://www.w3.org/1999/xlink" style="isolation:isolate" viewBox="0 0 512 512" width="512" height="512"><path d="M 32 480 L 480 480 L 480 512 L 32 512 L 32 480 Z M 0 0 L 32 0 L 32 512 L 0 512 L 0 0 Z" style="stroke:none;fill:#5D5D5D;stroke-miterlimit:10;"/><path d="M 480 32 L 512 32 L 512 512 L 480 512 L 480 32 Z M 32 0 L 512 0 L 512 32 L 32 32 L 32 0 Z" style="stroke:none;fill:#E8E8E8;stroke-miterlimit:10;"/><rect x="32" y="32" width="448" height="448" transform="matrix(1,0,0,1,0,0)" fill="rgb(185,185,185)"/><path d=" M 96 193 L 128 192 L 128 160 L 160.00000000000003 160 L 160.00000000000003 128.00000000000003 L 192 128.00000000000003 L 192 96 L 224 96 L 223 64 L 416 64 L 416 448 L 96 448 L 96 193 Z " fill="rgb(255,255,255)"/><rect x="64" y="224" width="32" height="224" transform="matrix(1,0,0,1,0,0)" fill="rgb(0,0,0)"/><rect x="224" y="64" width="224" height="32" transform="matrix(1,0,0,1,0,0)" fill="rgb(0,0,0)"/><rect x="416" y="96" width="32" height="352" transform="matrix(1,0,0,1,0,0)" fill="rgb(0,0,0)"/><rect x="96" y="416" width="320" height="32" transform="matrix(1,0,0,1,0,0)" fill="rgb(0,0,0)"/><rect x="96" y="192" width="32" height="32" transform="matrix(1,0,0,1,0,0)" fill="rgb(0,0,0)"/><rect x="128" y="160" width="32" height="32" transform="matrix(1,0,0,1,0,0)" fill="rgb(0,0,0)"/><rect x="160" y="128" width="32" height="32" transform="matrix(1,0,0,1,0,0)" fill="rgb(0,0,0)"/><rect x="192" y="96" width="32" height="32" transform="matrix(1,0,0,1,0,0)" fill="rgb(0,0,0)"/><rect x="96" y="224" width="160" height="32" transform="matrix(1,0,0,1,0,0)" fill="rgb(0,0,0)"/><rect x="224" y="96" width="32" height="128" transform="matrix(1,0,0,1,0,0)" fill="rgb(0,0,0)"/><rect x="288" y="224" width="96" height="32" transform="matrix(1,0,0,1,0,0)" fill="rgb(0,0,0)"/><rect x="288" y="128" width="96" height="32" transform="matrix(1,0,0,1,0,0)" fill="rgb(0,0,0)"/><rect x="288" y="290" width="96" height="32" transform="matrix(1,0,0,1,0,0)" fill="rgb(0,0,0)"/><rect x="128" y="288" width="96" height="32" transform="matrix(1,0,0,1,0,0)" fill="rgb(0,0,0)"/><rect x="128" y="352" width="256" height="32" transform="matrix(1,0,0,1,0,0)" fill="rgb(0,0,0)"/></svg>